<svg xmlns="http://www.w3.org/2000/svg" width="26" height="26" viewBox="0 0 26 26" fill="none">
  <g clip-path="url(#clip0_2122_126)">
    <path d="M25.4199 24.8L19.0599 18.44C21.044 16.3897 22.1424 13.6414 22.1181 10.7884C22.0938 7.93533 20.9487 5.20623 18.9299 3.19C17.922 2.17862 16.7242 1.37615 15.4055 0.828598C14.0867 0.28105 12.6729 -0.000804424 11.2449 -0.000804424C9.81703 -0.000804424 8.40316 0.28105 7.0844 0.828598C5.76564 1.37615 4.56793 2.17862 3.55995 3.19C2.54856 4.19799 1.74609 5.3957 1.19854 6.71446C0.650995 8.03322 0.369141 9.44709 0.369141 10.875C0.369141 12.3029 0.650995 13.7168 1.19854 15.0355C1.74609 16.3543 2.54856 17.552 3.55995 18.56C5.44715 20.4517 7.96552 21.5812 10.6333 21.7324C13.3011 21.8837 15.931 21.0462 18.0199 19.38L24.4299 25.79C24.4933 25.8562 24.5693 25.9089 24.6535 25.945C24.7377 25.9811 24.8283 25.9998 24.9199 26C25.0578 25.9973 25.1918 25.9546 25.3058 25.8771C25.4197 25.7995 25.5086 25.6904 25.5616 25.5632C25.6147 25.436 25.6295 25.2961 25.6043 25.1605C25.5792 25.025 25.5151 24.8997 25.4199 24.8ZM1.76995 10.88C1.76797 9.00461 2.32228 7.17077 3.36275 5.61047C4.40322 4.05018 5.8831 2.83355 7.61517 2.1145C9.34724 1.39544 11.2537 1.20628 13.0933 1.57094C14.9329 1.9356 16.623 2.83769 17.9498 4.16309C19.2766 5.48849 20.1805 7.17765 20.5471 9.01686C20.9137 10.8561 20.7265 12.7627 20.0093 14.4955C19.2921 16.2284 18.077 17.7095 16.5178 18.7516C14.9586 19.7938 13.1253 20.35 11.2499 20.35C8.73824 20.3474 6.33001 19.3491 4.55302 17.574C2.77604 15.7989 1.77524 13.3917 1.76995 10.88Z" fill="currentColor"/>
  </g>
  <defs>
    <clipPath id="clip0_2122_126">
      <rect width="26" height="26" fill="white"/>
    </clipPath>
  </defs>
</svg>