<svg xmlns="http://www.w3.org/2000/svg" width="22" height="22" viewBox="0 0 22 22" fill="none">
<g clip-path="url(#clip0_2006_706)">
<g clip-path="url(#clip1_2006_706)">
<path d="M21.4867 6.92704H20.1748C20.1582 6.8162 20.1068 6.7135 20.0281 6.6337L14.5526 1.27222C14.5043 1.2225 14.446 1.18361 14.3815 1.15815C14.1083 1.04163 13.8121 0.989124 13.5155 1.00466C13.219 1.02019 12.9299 1.10335 12.6704 1.24778C12.4744 1.41245 12.3285 1.62877 12.2493 1.87218C12.1701 2.11559 12.1607 2.37634 12.2222 2.62481C12.2299 2.74294 12.2823 2.8537 12.3689 2.93444L16.3615 6.91889L6.44519 6.84556L10.3807 2.91815C10.4609 2.8394 10.5125 2.73618 10.5274 2.62481C10.5861 2.37554 10.5745 2.11488 10.4939 1.87179C10.4134 1.6287 10.267 1.4127 10.0711 1.24778C9.81161 1.10335 9.52252 1.02019 9.22594 1.00466C8.92937 0.989124 8.63317 1.04163 8.36 1.15815C8.29552 1.18361 8.23719 1.2225 8.18889 1.27222L2.71333 6.62556C2.65591 6.68194 2.61384 6.75206 2.59111 6.82926H0.513333C0.446217 6.82952 0.37985 6.84337 0.318233 6.86998C0.256616 6.89659 0.201026 6.9354 0.154815 6.98407C0.107722 7.02809 0.0697997 7.08099 0.0432303 7.13972C0.0166608 7.19846 0.00196888 7.26186 0 7.3263L0 9.77074C0 9.90689 0.0540832 10.0375 0.150352 10.1337C0.246621 10.23 0.377189 10.2841 0.513333 10.2841H1.32815L2.95778 19.5567C2.9771 19.6769 3.03851 19.7863 3.13105 19.8654C3.22359 19.9445 3.34122 19.9881 3.46296 19.9885H19.1074C19.2291 19.9881 19.3468 19.9445 19.4393 19.8654C19.5319 19.7863 19.5933 19.6769 19.6126 19.5567L21.1852 10.3004H21.503C21.5704 10.3004 21.6371 10.2871 21.6994 10.2613C21.7617 10.2355 21.8183 10.1977 21.8659 10.15C21.9136 10.1024 21.9514 10.0458 21.9772 9.98348C22.003 9.9212 22.0163 9.85445 22.0163 9.78704V7.44037C22.0163 7.37156 22.0025 7.30345 21.9757 7.24009C21.9489 7.17672 21.9096 7.11939 21.8602 7.0715C21.8108 7.02362 21.7523 6.98615 21.6881 6.96133C21.6239 6.93652 21.5554 6.92485 21.4867 6.92704ZM13.2244 2.33148C13.2244 2.17667 13.2244 2.09519 13.2896 2.07074C13.4915 1.99288 13.7151 1.99288 13.917 2.07074L18.8548 6.89444H17.8119L13.2244 2.33148ZM8.82444 2.08704C9.02633 2.00918 9.24996 2.00918 9.45185 2.08704C9.45185 2.08704 9.51704 2.19296 9.51704 2.34778L4.99481 6.83741H3.96815L8.82444 2.08704ZM18.6674 18.9781H3.87037L2.37111 10.3004H5.01111C5.14726 10.3004 5.27782 10.2463 5.37409 10.15C5.47036 10.0537 5.52444 9.92318 5.52444 9.78704C5.52444 9.65089 5.47036 9.52032 5.37409 9.42405C5.27782 9.32779 5.14726 9.2737 5.01111 9.2737H1.02667V7.84778L20.9733 7.9537V9.2737H17.543C17.4068 9.2737 17.2762 9.32779 17.18 9.42405C17.0837 9.52032 17.0296 9.65089 17.0296 9.78704C17.0296 9.92318 17.0837 10.0537 17.18 10.15C17.2762 10.2463 17.4068 10.3004 17.543 10.3004H20.1259L18.6674 18.9781Z" fill="#72253D"/>
</g>
</g>
<defs>
<clipPath id="clip0_2006_706">
<rect width="22" height="22" fill="white" transform="translate(0 -0.5)"/>
</clipPath>
<clipPath id="clip1_2006_706">
<rect width="22" height="22" fill="white" transform="translate(0 -0.5)"/>
</clipPath>
</defs>
</svg>